<svg preserveAspectRatio="none" width="100%" height="100%" overflow="visible" style="display: block;" viewBox="0 0 220.581 32" fill="none" xmlns="http://www.w3.org/2000/svg">
<g id="Group 3">
<g id="Vector">
<path d="M25.8585 25.5877L25.8338 25.5631L25.6862 25.7108C23.0892 28.2954 19.6431 29.7231 15.9877 29.7231C8.41846 29.7231 2.25231 23.5692 2.25231 15.9877C2.25231 8.40615 8.40615 2.25231 15.9877 2.25231C19.6431 2.25231 23.0892 3.68 25.6862 6.27692L25.7477 6.33846C25.8954 6.51077 25.9692 6.73231 25.9692 6.95385C25.9692 7.21231 25.8708 7.45846 25.6862 7.63077C25.5015 7.81538 25.2677 7.91385 25.0092 7.91385C24.7508 7.91385 24.5046 7.81539 24.3323 7.64308L24.1723 7.48308C21.9569 5.34154 19.0523 4.17231 15.9754 4.17231C9.46462 4.17231 4.17231 9.46462 4.17231 15.9754C4.17231 22.4862 9.46462 27.7785 15.9754 27.7785C19.1138 27.7785 22.08 26.5477 24.3077 24.3323C24.9231 23.7169 25.2677 22.88 25.2677 22.0062C25.2677 21.1323 24.9231 20.3077 24.3077 19.68C23.6923 19.0646 22.8554 18.72 21.9815 18.72C21.1692 18.72 20.4062 19.0031 19.8031 19.5446L19.7908 19.5323L19.6431 19.68C18.6585 20.6646 17.3415 21.2062 15.9508 21.2062C13.0708 21.2062 10.72 18.8677 10.72 15.9754C10.72 13.0831 13.0585 10.7446 15.9508 10.7446C17.3415 10.7446 18.6462 11.2862 19.6431 12.2708L19.7908 12.4185L19.8031 12.4062C19.9877 12.5415 20.2215 12.6154 20.4554 12.6154C20.7631 12.6154 21.0462 12.4923 21.2554 12.2831C21.6985 11.84 21.6985 11.1262 21.2554 10.6708C21.2431 10.6585 21.2431 10.6585 21.2308 10.6585C19.8154 9.25539 17.9446 8.48 15.9508 8.48C11.8154 8.48 8.45538 11.84 8.45538 15.9754C8.45538 20.1108 11.8154 23.4708 15.9508 23.4708C17.8831 23.4708 19.7046 22.7446 21.0954 21.4154L21.1077 21.4277L21.2554 21.28C21.4523 21.0831 21.6985 20.9846 21.9692 20.9846C22.24 20.9846 22.4985 21.0954 22.6831 21.28C22.88 21.4769 22.9785 21.7231 22.9785 21.9938C22.9785 22.2523 22.8923 22.4862 22.72 22.6708L22.6831 22.7077C20.8862 24.5046 18.4862 25.4892 15.9508 25.4892C10.6954 25.4892 6.41231 21.2062 6.41231 15.9508C6.41231 10.6954 10.6954 6.41231 15.9508 6.41231C18.4862 6.41231 20.8862 7.40923 22.6831 9.20615L22.8308 9.34154C23.4215 9.87077 24.1723 10.1538 24.9723 10.1538C25.8338 10.1538 26.6462 9.82154 27.2615 9.20615C28.5169 7.95077 28.5169 5.89539 27.2615 4.62769L27.1138 4.49231C24.1477 1.61231 20.1969 0 16 0C7.17539 0 0 7.17538 0 16C0 24.8246 7.17539 32 16 32C20.1969 32 24.16 30.3754 27.1754 27.4338C27.2246 27.3969 27.2615 27.36 27.2985 27.3231C27.5077 27.1138 27.6308 26.8185 27.6308 26.5231C27.6308 26.2154 27.5077 25.9323 27.2985 25.7231C26.9169 25.3292 26.3015 25.2923 25.8585 25.5877Z" fill="#FC7A00"/>
</g>
<g id="conor marketing">
<path id="Vector_2" d="M214.164 27.6641C213.029 27.6641 211.924 27.5008 210.851 27.1741C209.793 26.863 208.93 26.4119 208.261 25.8208L209.334 24.0941C209.91 24.5919 210.618 24.9808 211.458 25.2608C212.298 25.5563 213.177 25.7041 214.094 25.7041C215.557 25.7041 216.63 25.3619 217.314 24.6774C217.999 23.993 218.341 22.9508 218.341 21.5508V18.9374L218.574 16.4874L218.458 14.0141V10.6308H220.581V21.3174C220.581 23.4952 220.037 25.0974 218.948 26.1241C217.859 27.1508 216.264 27.6641 214.164 27.6641ZM213.884 22.4841C212.687 22.4841 211.613 22.2352 210.664 21.7374C209.731 21.2241 208.984 20.5163 208.424 19.6141C207.88 18.7119 207.608 17.6696 207.608 16.4874C207.608 15.2896 207.88 14.2474 208.424 13.3608C208.984 12.4585 209.731 11.7585 210.664 11.2608C211.613 10.763 212.687 10.5141 213.884 10.5141C214.942 10.5141 215.907 10.7319 216.778 11.1674C217.649 11.5874 218.341 12.2408 218.854 13.1274C219.383 14.0141 219.648 15.1341 219.648 16.4874C219.648 17.8252 219.383 18.9374 218.854 19.8241C218.341 20.7108 217.649 21.3796 216.778 21.8308C215.907 22.2663 214.942 22.4841 213.884 22.4841ZM214.141 20.5241C214.965 20.5241 215.697 20.353 216.334 20.0108C216.972 19.6685 217.47 19.1941 217.828 18.5874C218.201 17.9808 218.388 17.2808 218.388 16.4874C218.388 15.6941 218.201 14.9941 217.828 14.3874C217.47 13.7808 216.972 13.3141 216.334 12.9874C215.697 12.6452 214.965 12.4741 214.141 12.4741C213.317 12.4741 212.578 12.6452 211.924 12.9874C211.287 13.3141 210.781 13.7808 210.408 14.3874C210.05 14.9941 209.871 15.6941 209.871 16.4874C209.871 17.2808 210.05 17.9808 210.408 18.5874C210.781 19.1941 211.287 19.6685 211.924 20.0108C212.578 20.353 213.317 20.5241 214.141 20.5241Z" fill="white"/>
<path id="Vector_3" d="M200.638 10.5141C201.649 10.5141 202.536 10.7085 203.298 11.0974C204.076 11.4863 204.683 12.0774 205.118 12.8708C205.554 13.6641 205.772 14.6674 205.772 15.8808V22.9974H203.532V16.1374C203.532 14.9396 203.236 14.0374 202.645 13.4308C202.069 12.8241 201.253 12.5208 200.195 12.5208C199.402 12.5208 198.709 12.6763 198.118 12.9874C197.527 13.2985 197.068 13.7574 196.742 14.3641C196.43 14.9708 196.275 15.7252 196.275 16.6274V22.9974H194.035V10.6308H196.182V13.9674L195.832 13.0808C196.236 12.2719 196.858 11.6419 197.698 11.1908C198.538 10.7396 199.518 10.5141 200.638 10.5141Z" fill="white"/>
<path id="Vector_4" d="M188.685 22.9968V10.6302H190.925V22.9968H188.685ZM189.805 8.25017C189.369 8.25017 189.004 8.11017 188.708 7.83017C188.428 7.55017 188.288 7.20795 188.288 6.80351C188.288 6.38351 188.428 6.03351 188.708 5.75351C189.004 5.47351 189.369 5.33351 189.805 5.33351C190.24 5.33351 190.598 5.47351 190.878 5.75351C191.174 6.01795 191.321 6.35239 191.321 6.75684C191.321 7.17684 191.181 7.53462 190.901 7.83017C190.621 8.11017 190.256 8.25017 189.805 8.25017Z" fill="white"/>
<path id="Vector_5" d="M184.437 23.1368C183.192 23.1368 182.228 22.8023 181.543 22.1335C180.859 21.4646 180.517 20.5079 180.517 19.2635V7.92346H182.757V19.1701C182.757 19.839 182.92 20.3523 183.247 20.7101C183.589 21.0679 184.071 21.2468 184.693 21.2468C185.393 21.2468 185.977 21.0523 186.443 20.6635L187.143 22.2735C186.801 22.569 186.389 22.7868 185.907 22.9268C185.44 23.0668 184.95 23.1368 184.437 23.1368ZM178.417 12.4735V10.6301H186.303V12.4735H178.417Z" fill="white"/>
<path id="Vector_6" d="M172.576 23.1374C171.254 23.1374 170.088 22.8652 169.076 22.3208C168.081 21.7763 167.303 21.0296 166.743 20.0808C166.199 19.1319 165.926 18.043 165.926 16.8141C165.926 15.5852 166.191 14.4963 166.72 13.5474C167.264 12.5985 168.003 11.8596 168.936 11.3308C169.885 10.7863 170.951 10.5141 172.133 10.5141C173.331 10.5141 174.389 10.7785 175.306 11.3074C176.224 11.8363 176.94 12.583 177.453 13.5474C177.982 14.4963 178.246 15.6085 178.246 16.8841C178.246 16.9774 178.239 17.0863 178.223 17.2108C178.223 17.3352 178.215 17.4519 178.2 17.5608H167.676V15.9508H177.033L176.123 16.5108C176.139 15.7174 175.975 15.0096 175.633 14.3874C175.291 13.7652 174.816 13.283 174.21 12.9408C173.619 12.583 172.926 12.4041 172.133 12.4041C171.355 12.4041 170.663 12.583 170.056 12.9408C169.45 13.283 168.975 13.773 168.633 14.4108C168.291 15.033 168.12 15.7485 168.12 16.5574V16.9308C168.12 17.7552 168.306 18.4941 168.68 19.1474C169.069 19.7852 169.605 20.283 170.29 20.6408C170.974 20.9985 171.76 21.1774 172.646 21.1774C173.378 21.1774 174.039 21.053 174.63 20.8041C175.236 20.5552 175.765 20.1819 176.216 19.6841L177.453 21.1308C176.893 21.7841 176.193 22.2819 175.353 22.6241C174.529 22.9663 173.603 23.1374 172.576 23.1374Z" fill="white"/>
<path id="Vector_7" d="M156.18 20.0105L156.226 17.1405L163.343 10.6305H166.05L160.59 15.9972L159.376 17.0238L156.18 20.0105ZM154.36 22.9972V5.68383H156.6V22.9972H154.36ZM163.81 22.9972L158.956 16.9772L160.403 15.1805L166.563 22.9972H163.81Z" fill="white"/>
<path id="Vector_8" d="M146.115 22.9974V10.6308H148.262V13.9908L148.052 13.1508C148.394 12.2952 148.97 11.6419 149.779 11.1908C150.588 10.7396 151.583 10.5141 152.765 10.5141V12.6841C152.672 12.6685 152.579 12.6608 152.485 12.6608C152.408 12.6608 152.33 12.6608 152.252 12.6608C151.054 12.6608 150.105 13.0185 149.405 13.7341C148.705 14.4496 148.355 15.4841 148.355 16.8374V22.9974H146.115Z" fill="white"/>
<path id="Vector_9" d="M141.013 22.9974V20.3841L140.896 19.8941V15.4374C140.896 14.4885 140.616 13.7574 140.056 13.2441C139.512 12.7152 138.688 12.4508 137.583 12.4508C136.852 12.4508 136.136 12.5752 135.436 12.8241C134.736 13.0574 134.145 13.3763 133.663 13.7808L132.73 12.1008C133.368 11.5874 134.13 11.1985 135.016 10.9341C135.919 10.6541 136.86 10.5141 137.84 10.5141C139.535 10.5141 140.842 10.9263 141.76 11.7508C142.678 12.5752 143.136 13.8352 143.136 15.5308V22.9974H141.013ZM136.953 23.1374C136.035 23.1374 135.226 22.9819 134.526 22.6708C133.842 22.3596 133.313 21.9319 132.94 21.3874C132.566 20.8274 132.38 20.1974 132.38 19.4974C132.38 18.8285 132.535 18.2219 132.846 17.6774C133.173 17.133 133.694 16.6974 134.41 16.3708C135.141 16.0441 136.121 15.8808 137.35 15.8808H141.27V17.4908H137.443C136.323 17.4908 135.569 17.6774 135.18 18.0508C134.791 18.4241 134.596 18.8752 134.596 19.4041C134.596 20.0108 134.838 20.5008 135.32 20.8741C135.802 21.2319 136.471 21.4108 137.326 21.4108C138.166 21.4108 138.898 21.2241 139.52 20.8508C140.158 20.4774 140.616 19.933 140.896 19.2174L141.34 20.7574C141.044 21.4885 140.523 22.0719 139.776 22.5074C139.03 22.9274 138.089 23.1374 136.953 23.1374Z" fill="white"/>
<path id="Vector_10" d="M125.319 10.5141C126.314 10.5141 127.193 10.7085 127.955 11.0974C128.717 11.4863 129.309 12.0774 129.729 12.8708C130.164 13.6641 130.382 14.6674 130.382 15.8808V22.9974H128.142V16.1374C128.142 14.9396 127.862 14.0374 127.302 13.4308C126.742 12.8241 125.956 12.5208 124.945 12.5208C124.199 12.5208 123.545 12.6763 122.985 12.9874C122.425 13.2985 121.99 13.7574 121.679 14.3641C121.383 14.9708 121.235 15.7252 121.235 16.6274V22.9974H118.995V16.1374C118.995 14.9396 118.715 14.0374 118.155 13.4308C117.611 12.8241 116.825 12.5208 115.799 12.5208C115.067 12.5208 114.422 12.6763 113.862 12.9874C113.302 13.2985 112.866 13.7574 112.555 14.3641C112.244 14.9708 112.089 15.7252 112.089 16.6274V22.9974H109.849V10.6308H111.995V13.9208L111.645 13.0808C112.034 12.2719 112.633 11.6419 113.442 11.1908C114.251 10.7396 115.192 10.5141 116.265 10.5141C117.447 10.5141 118.466 10.8096 119.322 11.4008C120.177 11.9763 120.737 12.8552 121.002 14.0374L120.092 13.6641C120.465 12.7152 121.119 11.953 122.052 11.3774C122.985 10.8019 124.074 10.5141 125.319 10.5141Z" fill="white"/>
<path id="Vector_11" d="M94.8704 22.9966V10.3499H99.0937V14.0366L98.4637 12.9866C98.8371 12.0377 99.4437 11.3299 100.284 10.8632C101.124 10.381 102.143 10.1399 103.34 10.1399V14.1299C103.138 14.0988 102.959 14.0832 102.804 14.0832C102.664 14.0677 102.508 14.0599 102.337 14.0599C101.435 14.0599 100.704 14.3088 100.144 14.8066C99.5837 15.2888 99.3037 16.0821 99.3037 17.1866V22.9966H94.8704Z" fill="white"/>
<path id="Vector_12" d="M86.8428 23.2066C85.4584 23.2066 84.2295 22.9266 83.1562 22.3666C82.0828 21.8066 81.2351 21.0366 80.6128 20.0566C80.0062 19.061 79.7028 17.9255 79.7028 16.6499C79.7028 15.3744 80.0062 14.2466 80.6128 13.2666C81.2351 12.2866 82.0828 11.5244 83.1562 10.9799C84.2295 10.4199 85.4584 10.1399 86.8428 10.1399C88.2273 10.1399 89.4562 10.4199 90.5295 10.9799C91.6184 11.5244 92.4662 12.2866 93.0728 13.2666C93.6795 14.2466 93.9828 15.3744 93.9828 16.6499C93.9828 17.9255 93.6795 19.061 93.0728 20.0566C92.4662 21.0366 91.6184 21.8066 90.5295 22.3666C89.4562 22.9266 88.2273 23.2066 86.8428 23.2066ZM86.8428 19.6832C87.3562 19.6832 87.8073 19.5666 88.1962 19.3332C88.6006 19.0999 88.9195 18.7577 89.1528 18.3066C89.3862 17.8399 89.5028 17.2877 89.5028 16.6499C89.5028 16.0121 89.3862 15.4755 89.1528 15.0399C88.9195 14.5888 88.6006 14.2466 88.1962 14.0132C87.8073 13.7799 87.3562 13.6632 86.8428 13.6632C86.3451 13.6632 85.8939 13.7799 85.4895 14.0132C85.1006 14.2466 84.7817 14.5888 84.5328 15.0399C84.2995 15.4755 84.1828 16.0121 84.1828 16.6499C84.1828 17.2877 84.2995 17.8399 84.5328 18.3066C84.7817 18.7577 85.1006 19.0999 85.4895 19.3332C85.8939 19.5666 86.3451 19.6832 86.8428 19.6832Z" fill="white"/>
<path id="Vector_13" d="M73.4937 10.1399C74.4737 10.1399 75.3604 10.3421 76.1537 10.7466C76.947 11.1355 77.5693 11.7421 78.0204 12.5666C78.487 13.391 78.7204 14.4566 78.7204 15.7632V22.9966H74.287V16.4866C74.287 15.5844 74.1004 14.931 73.727 14.5266C73.3693 14.1066 72.8637 13.8966 72.2104 13.8966C71.7437 13.8966 71.3159 14.0055 70.927 14.2232C70.5381 14.4255 70.2348 14.7444 70.017 15.1799C69.7993 15.6155 69.6904 16.1832 69.6904 16.8832V22.9966H65.257V10.3499H69.4804V13.9432L68.6637 12.8932C69.1459 11.9755 69.807 11.291 70.647 10.8399C71.487 10.3732 72.4359 10.1399 73.4937 10.1399Z" fill="white"/>
<path id="Vector_14" d="M57.2301 23.2066C55.8457 23.2066 54.6168 22.9266 53.5435 22.3666C52.4701 21.8066 51.6224 21.0366 51.0001 20.0566C50.3935 19.061 50.0901 17.9255 50.0901 16.6499C50.0901 15.3744 50.3935 14.2466 51.0001 13.2666C51.6224 12.2866 52.4701 11.5244 53.5435 10.9799C54.6168 10.4199 55.8457 10.1399 57.2301 10.1399C58.6146 10.1399 59.8435 10.4199 60.9168 10.9799C62.0057 11.5244 62.8535 12.2866 63.4601 13.2666C64.0668 14.2466 64.3701 15.3744 64.3701 16.6499C64.3701 17.9255 64.0668 19.061 63.4601 20.0566C62.8535 21.0366 62.0057 21.8066 60.9168 22.3666C59.8435 22.9266 58.6146 23.2066 57.2301 23.2066ZM57.2301 19.6832C57.7435 19.6832 58.1946 19.5666 58.5835 19.3332C58.9879 19.0999 59.3068 18.7577 59.5401 18.3066C59.7735 17.8399 59.8901 17.2877 59.8901 16.6499C59.8901 16.0121 59.7735 15.4755 59.5401 15.0399C59.3068 14.5888 58.9879 14.2466 58.5835 14.0132C58.1946 13.7799 57.7435 13.6632 57.2301 13.6632C56.7324 13.6632 56.2813 13.7799 55.8768 14.0132C55.4879 14.2466 55.169 14.5888 54.9201 15.0399C54.6868 15.4755 54.5701 16.0121 54.5701 16.6499C54.5701 17.2877 54.6868 17.8399 54.9201 18.3066C55.169 18.7577 55.4879 19.0999 55.8768 19.3332C56.2813 19.5666 56.7324 19.6832 57.2301 19.6832Z" fill="white"/>
<path id="Vector_15" d="M44.5906 23.2066C43.1906 23.2066 41.9384 22.9266 40.8339 22.3666C39.7451 21.8066 38.8895 21.0366 38.2673 20.0566C37.6451 19.061 37.3339 17.9255 37.3339 16.6499C37.3339 15.3744 37.6451 14.2466 38.2673 13.2666C38.8895 12.2866 39.7451 11.5244 40.8339 10.9799C41.9384 10.4199 43.1906 10.1399 44.5906 10.1399C46.0217 10.1399 47.2584 10.4432 48.3006 11.0499C49.3428 11.6566 50.0817 12.5121 50.5173 13.6166L47.0873 15.3666C46.7917 14.7755 46.4262 14.3477 45.9906 14.0832C45.5551 13.8032 45.0806 13.6632 44.5673 13.6632C44.0539 13.6632 43.5873 13.7799 43.1673 14.0132C42.7473 14.2466 42.4128 14.5888 42.1639 15.0399C41.9306 15.4755 41.8139 16.0121 41.8139 16.6499C41.8139 17.3032 41.9306 17.8555 42.1639 18.3066C42.4128 18.7577 42.7473 19.0999 43.1673 19.3332C43.5873 19.5666 44.0539 19.6832 44.5673 19.6832C45.0806 19.6832 45.5551 19.551 45.9906 19.2866C46.4262 19.0066 46.7917 18.571 47.0873 17.9799L50.5173 19.7299C50.0817 20.8344 49.3428 21.6899 48.3006 22.2966C47.2584 22.9032 46.0217 23.2066 44.5906 23.2066Z" fill="white"/>
</g>
</g>
</svg>
