<svg preserveAspectRatio="none" overflow="visible" style="display: block;" width="321" height="62" viewBox="0 0 321 62" fill="none" xmlns="http://www.w3.org/2000/svg">
<g id="Vector">
<path d="M49.2281 49.6715L49.1813 49.6238L48.9007 49.91C43.9662 54.9177 37.418 57.6838 30.4723 57.6838C16.0898 57.6838 4.37323 45.7608 4.37323 31.0715C4.37323 16.3823 16.0664 4.45923 30.4723 4.45923C37.418 4.45923 43.9662 7.22538 48.9007 12.2569L49.0176 12.3762C49.2983 12.71 49.4386 13.1392 49.4386 13.5685C49.4386 14.0692 49.2515 14.5462 48.9007 14.88C48.5499 15.2377 48.1056 15.4285 47.6144 15.4285C47.1233 15.4285 46.6556 15.2377 46.3282 14.9038L46.0242 14.5938C41.8147 10.4446 36.2955 8.17923 30.4489 8.17923C18.0776 8.17923 8.02149 18.4331 8.02149 31.0477C8.02149 43.6623 18.0776 53.9162 30.4489 53.9162C36.4124 53.9162 42.0485 51.5315 46.2814 47.2392C47.4507 46.0469 48.1056 44.4254 48.1056 42.7323C48.1056 41.0392 47.4507 39.4415 46.2814 38.2254C45.1121 37.0331 43.5219 36.3654 41.8614 36.3654C40.3179 36.3654 38.868 36.9138 37.7221 37.9631L37.6987 37.9392L37.418 38.2254C35.5471 40.1331 33.0448 41.1823 30.4022 41.1823C24.9298 41.1823 20.463 36.6515 20.463 31.0477C20.463 25.4677 24.9064 20.9131 30.4022 20.9131C33.0448 20.9131 35.5237 21.9623 37.418 23.87L37.6987 24.1562L37.7221 24.1323C38.0728 24.3946 38.5172 24.5377 38.9615 24.5377C39.5462 24.5377 40.0841 24.2992 40.4816 23.8938C41.3235 23.0354 41.3235 21.6523 40.4816 20.77C40.4582 20.7462 40.4582 20.7462 40.4349 20.7462C37.7454 18.0277 34.1907 16.5254 30.4022 16.5254C22.5444 16.5254 16.1599 23.0354 16.1599 31.0477C16.1599 39.06 22.5444 45.57 30.4022 45.57C34.0738 45.57 37.535 44.1631 40.1776 41.5877L40.201 41.6115L40.4816 41.3254C40.8558 40.9439 41.3235 40.7531 41.838 40.7531C42.3525 40.7531 42.8436 40.9677 43.1944 41.3254C43.5686 41.7069 43.7557 42.1838 43.7557 42.7085C43.7557 43.2092 43.592 43.6623 43.2646 44.02L43.1944 44.0915C39.78 47.5731 35.2197 49.4808 30.4022 49.4808C20.4162 49.4808 12.2778 41.1823 12.2778 31C12.2778 20.8177 20.4162 12.5192 30.4022 12.5192C35.2197 12.5192 39.78 14.4508 43.1944 17.9323L43.4751 18.1946C44.5976 19.22 46.0242 19.7685 47.5443 19.7685C49.1813 19.7685 50.7248 19.1246 51.8941 17.9323C54.2795 15.5 54.2795 11.5177 51.8941 9.06154L51.6135 8.79923C45.9072 3.12385 38.3769 0 30.4022 0C13.6342 0 0 13.9023 0 31C0 48.0977 13.6342 62 30.4022 62C38.3769 62 45.9072 58.8523 51.6369 53.1531C51.7304 53.0815 51.8006 53.01 51.8707 52.9385C52.2683 52.5331 52.5022 51.9608 52.5022 51.3885C52.5022 50.7923 52.2683 50.2438 51.8707 49.8385C51.2393 49.1708 50.07 49.0754 49.2281 49.6715Z" fill="#9966FF"/>
<path d="M76.8473 43.1854C74.7191 42.0885 73.0587 40.5623 71.8894 38.6069C70.6967 36.6515 70.112 34.4339 70.112 31.9539C70.112 29.4739 70.6967 27.28 71.8894 25.3246C73.0821 23.3931 74.7191 21.8669 76.8473 20.7939C78.9754 19.7208 81.3842 19.1723 84.097 19.1723C86.8566 19.1723 89.242 19.7685 91.2532 20.9846C93.2644 22.2008 94.691 23.87 95.5329 26.0162L88.9146 29.45C87.8154 27.2085 86.1784 26.1115 84.0503 26.1115C82.5302 26.1115 81.2439 26.6362 80.2617 27.6615C79.2561 28.7108 78.765 30.1415 78.765 31.9777C78.765 33.8377 79.2561 35.2923 80.2617 36.3654C81.2673 37.4146 82.5302 37.9392 84.0503 37.9392C86.1784 37.9392 87.7921 36.8185 88.9146 34.6008L95.5329 38.0346C94.691 40.1808 93.2644 41.85 91.2532 43.0662C89.242 44.2823 86.8566 44.8785 84.097 44.8785C81.3842 44.8308 78.9754 44.2823 76.8473 43.1854Z" fill="black"/>
<path d="M101.403 43.1854C99.2981 42.0885 97.6611 40.5623 96.4684 38.6069C95.2757 36.6515 94.691 34.4339 94.691 31.9539C94.691 29.4977 95.2757 27.3039 96.4684 25.3485C97.6611 23.3931 99.2747 21.8669 101.38 20.7939C103.461 19.7208 105.823 19.1723 108.466 19.1723C111.108 19.1723 113.47 19.7208 115.575 20.7939C117.68 21.8908 119.317 23.3931 120.486 25.3246C121.655 27.2562 122.24 29.4739 122.24 31.9539C122.24 34.4339 121.655 36.6515 120.486 38.6069C119.317 40.5623 117.68 42.0885 115.575 43.1854C113.47 44.2823 111.108 44.8308 108.466 44.8308C105.846 44.8308 103.508 44.2823 101.403 43.1854ZM112.161 36.3415C113.119 35.2923 113.611 33.8377 113.611 31.9539C113.611 30.1177 113.119 28.6869 112.161 27.6377C111.202 26.5885 109.962 26.0877 108.466 26.0877C106.969 26.0877 105.729 26.6123 104.771 27.6377C103.812 28.6869 103.321 30.1177 103.321 31.9539C103.321 33.8139 103.788 35.2685 104.771 36.3415C105.729 37.3908 106.969 37.9154 108.466 37.9154C109.962 37.9154 111.178 37.3908 112.161 36.3415Z" fill="black"/>
<path d="M147.1 21.9146C148.947 23.7508 149.859 26.5169 149.859 30.2131V44.4254H141.323V31.6438C141.323 28.2577 139.99 26.5646 137.324 26.5646C135.851 26.5646 134.682 27.0415 133.793 28.0431C132.904 29.0208 132.46 30.4992 132.46 32.4546V44.4731H123.924V19.5777H132.062V22.2723C133.021 21.2708 134.167 20.4838 135.477 19.9592C136.786 19.4346 138.236 19.1484 139.803 19.1484C142.843 19.1723 145.276 20.0785 147.1 21.9146Z" fill="black"/>
<path d="M158.512 43.1854C156.407 42.0885 154.77 40.5623 153.578 38.6069C152.385 36.6515 151.8 34.4339 151.8 31.9539C151.8 29.4977 152.385 27.3039 153.578 25.3485C154.77 23.3931 156.407 21.8669 158.489 20.7939C160.57 19.7208 162.932 19.1723 165.575 19.1723C168.217 19.1723 170.579 19.7208 172.684 20.7939C174.789 21.8908 176.426 23.3931 177.595 25.3246C178.765 27.2562 179.349 29.4739 179.349 31.9539C179.349 34.4339 178.765 36.6515 177.595 38.6069C176.426 40.5623 174.789 42.0885 172.684 43.1854C170.579 44.2823 168.217 44.8308 165.575 44.8308C162.955 44.8308 160.617 44.2823 158.512 43.1854ZM169.27 36.3415C170.229 35.2923 170.72 33.8377 170.72 31.9539C170.72 30.1177 170.229 28.6869 169.27 27.6377C168.311 26.5885 167.071 26.0877 165.575 26.0877C164.078 26.0877 162.839 26.6123 161.88 27.6377C160.921 28.6869 160.43 30.1177 160.43 31.9539C160.43 33.8139 160.897 35.2685 161.88 36.3415C162.839 37.3908 164.078 37.9154 165.575 37.9154C167.071 37.9154 168.288 37.3908 169.27 36.3415Z" fill="black"/>
<path d="M192.562 20.0069C193.966 19.4346 195.556 19.1484 197.357 19.1484V26.9938C196.585 26.8985 195.93 26.8508 195.416 26.8508C193.591 26.8508 192.165 27.3515 191.113 28.3531C190.06 29.3546 189.569 30.9046 189.569 32.9792V44.4015H181.033V19.5777H189.171V22.5585C190.037 21.4138 191.183 20.5792 192.562 20.0069Z" fill="black"/>
<path d="M225.257 44.4254V41.1585C223.269 43.5669 220.626 44.7831 217.305 44.7831C214.826 44.7831 212.745 44.0677 211.131 42.6369C209.494 41.2062 208.676 39.2746 208.676 36.89C208.676 34.4815 209.541 32.6931 211.295 31.5008C213.026 30.3085 215.388 29.7123 218.358 29.7123H224.882V28.8062C224.882 25.5631 223.105 23.9415 219.574 23.9415C217.352 23.9415 215.037 24.7762 212.651 26.4215L210.406 23.2023C213.306 20.8415 216.604 19.6731 220.299 19.6731C223.105 19.6731 225.42 20.3885 227.198 21.8431C228.975 23.2977 229.864 25.5869 229.864 28.7108V44.4254H225.257ZM224.789 35.34V33.2892H219.129C215.504 33.2892 213.68 34.4577 213.68 36.7708C213.68 37.9631 214.125 38.8692 215.037 39.4892C215.925 40.1092 217.188 40.4192 218.802 40.4192C220.416 40.4192 221.819 39.9662 223.011 39.0362C224.181 38.1539 224.789 36.9139 224.789 35.34Z" fill="black"/>
<path d="M251.636 37.1285C251.636 39.4415 250.818 41.3015 249.157 42.7085C247.497 44.0915 245.392 44.7831 242.82 44.7831C241.089 44.7831 239.265 44.4731 237.394 43.8292C235.523 43.1854 233.863 42.2792 232.436 41.1346L234.868 37.1523C237.651 39.2985 240.364 40.3716 242.96 40.3716C244.106 40.3716 244.995 40.1092 245.649 39.5608C246.304 39.0362 246.632 38.3446 246.632 37.51C246.632 36.2939 245.041 35.1969 241.861 34.2192C241.627 34.1239 241.44 34.0762 241.323 34.0285C236.342 32.6454 233.863 30.3562 233.863 27.1608C233.863 24.8954 234.728 23.0831 236.459 21.7239C238.189 20.3646 240.434 19.6731 243.194 19.6731C245.953 19.6731 248.549 20.5077 251.028 22.1531L249.134 25.9685C247.193 24.6569 245.065 23.9892 242.796 23.9892C241.604 23.9892 240.621 24.2039 239.873 24.6569C239.125 25.11 238.75 25.7777 238.75 26.66C238.75 27.4469 239.148 28.0431 239.92 28.4008C240.458 28.6869 241.206 28.9254 242.188 29.1877C243.17 29.4262 244.036 29.6646 244.784 29.9269C245.532 30.1654 246.257 30.4515 246.959 30.7615C247.661 31.0715 248.432 31.5008 249.228 32.0492C250.818 33.0985 251.636 34.8154 251.636 37.1285Z" fill="black"/>
<path d="M272.146 37.1285C272.146 39.4415 271.327 41.3015 269.667 42.7085C268.007 44.0915 265.902 44.7831 263.329 44.7831C261.599 44.7831 259.775 44.4731 257.904 43.8292C256.033 43.1854 254.372 42.2792 252.946 41.1346L255.378 37.1523C258.161 39.2985 260.874 40.3716 263.47 40.3716C264.616 40.3716 265.504 40.1092 266.159 39.5608C266.814 39.0362 267.141 38.3446 267.141 37.51C267.141 36.2939 265.551 35.1969 262.371 34.2192C262.137 34.1239 261.95 34.0762 261.833 34.0285C256.851 32.6454 254.372 30.3562 254.372 27.1608C254.372 24.8954 255.238 23.0831 256.968 21.7239C258.699 20.3646 260.944 19.6731 263.704 19.6731C266.463 19.6731 269.059 20.5077 271.538 22.1531L269.644 25.9685C267.703 24.6569 265.574 23.9892 263.306 23.9892C262.113 23.9892 261.131 24.2039 260.383 24.6569C259.634 25.11 259.26 25.7777 259.26 26.66C259.26 27.4469 259.658 28.0431 260.429 28.4008C260.967 28.6869 261.716 28.9254 262.698 29.1877C263.68 29.4262 264.545 29.6646 265.294 29.9269C266.042 30.1654 266.767 30.4515 267.469 30.7615C268.17 31.0715 268.942 31.5008 269.737 32.0492C271.327 33.0985 272.146 34.8154 272.146 37.1285Z" fill="black"/>
<path d="M275.911 15.1662C275.28 14.5223 274.976 13.7592 274.976 12.8769C274.976 11.9946 275.28 11.2315 275.911 10.5877C276.543 9.94386 277.291 9.63386 278.156 9.63386C279.022 9.63386 279.77 9.94386 280.401 10.5877C281.033 11.2315 281.337 11.9946 281.337 12.8769C281.337 13.7592 281.033 14.5223 280.401 15.1662C279.77 15.81 279.022 16.12 278.156 16.12C277.291 16.1439 276.543 15.81 275.911 15.1662ZM280.635 44.4254H275.607V20.0308H280.635V44.4254Z" fill="black"/>
<path d="M302.712 37.1285C302.712 39.4415 301.893 41.3015 300.233 42.7085C298.572 44.0915 296.468 44.7831 293.895 44.7831C292.165 44.7831 290.341 44.4731 288.47 43.8292C286.599 43.1854 284.938 42.2792 283.488 41.1346L285.921 37.1523C288.703 39.2985 291.416 40.3716 294.012 40.3716C295.158 40.3716 296.047 40.1092 296.702 39.5608C297.356 39.0362 297.684 38.3446 297.684 37.51C297.684 36.2939 296.094 35.1969 292.913 34.2192C292.679 34.1239 292.492 34.0762 292.375 34.0285C287.394 32.6454 284.915 30.3562 284.915 27.1608C284.915 24.8954 285.78 23.0831 287.511 21.7239C289.241 20.3646 291.486 19.6731 294.223 19.6731C296.982 19.6731 299.601 20.5077 302.057 22.1531L300.163 25.9685C298.222 24.6569 296.094 23.9892 293.825 23.9892C292.632 23.9892 291.65 24.2039 290.902 24.6569C290.153 25.11 289.779 25.7777 289.779 26.66C289.779 27.4469 290.177 28.0431 290.949 28.4008C291.486 28.6869 292.235 28.9254 293.217 29.1877C294.199 29.4262 295.065 29.6646 295.813 29.9269C296.561 30.1654 297.286 30.4515 297.988 30.7615C298.689 31.0715 299.438 31.5008 300.256 32.0492C301.917 33.0985 302.712 34.8154 302.712 37.1285Z" fill="black"/>
<path d="M312.394 24.1562V36.5323C312.394 37.7008 312.698 38.6069 313.283 39.2985C313.891 39.99 314.732 40.3239 315.808 40.3239C316.884 40.3239 317.913 39.7992 318.919 38.7262L321 42.3508C319.223 43.9723 317.282 44.7831 315.13 44.7831C312.978 44.7831 311.154 44.02 309.634 42.5177C308.114 41.0154 307.366 38.9646 307.366 36.3892V24.1562H304.349V20.0308H307.366V12.3762H312.394V20.0308H318.685V24.1562H312.394Z" fill="black"/>
</g>
</svg>
