<svg preserveAspectRatio="none" width="100%" height="100%" overflow="visible" style="display: block;" viewBox="0 0 118 19.175" fill="none" xmlns="http://www.w3.org/2000/svg">
<g id="Vector">
<path id="Vector_2" d="M16.6064 15.3326L16.5906 15.3179L16.4958 15.4064C14.828 16.9551 12.6149 17.8106 10.2674 17.8106C5.40638 17.8106 1.44645 14.1231 1.44645 9.58011C1.44645 5.03711 5.39848 1.34962 10.2674 1.34962C12.6149 1.34962 14.828 2.20512 16.4958 3.76124L16.5353 3.79812C16.6301 3.90137 16.6776 4.03412 16.6776 4.16687C16.6776 4.32174 16.6144 4.46924 16.4958 4.57249C16.3772 4.68311 16.227 4.74212 16.0611 4.74212C15.8951 4.74212 15.737 4.68312 15.6263 4.57987L15.5236 4.48399C14.1008 3.20074 12.2355 2.50012 10.2595 2.50012C6.07823 2.50012 2.67948 5.67137 2.67948 9.57274C2.67948 13.4741 6.07823 16.6454 10.2595 16.6454C12.275 16.6454 14.1799 15.9078 15.6105 14.5803C16.0057 14.2116 16.227 13.7101 16.227 13.1865C16.227 12.6628 16.0057 12.1687 15.6105 11.7926C15.2153 11.4238 14.6778 11.2174 14.1167 11.2174C13.595 11.2174 13.105 11.387 12.7176 11.7115L12.7097 11.7041L12.6149 11.7926C11.9826 12.3826 11.1368 12.7071 10.2437 12.7071C8.39414 12.7071 6.88445 11.3059 6.88445 9.57274C6.88445 7.84699 8.38619 6.43835 10.2437 6.43835C11.1368 6.43835 11.9747 6.76289 12.6149 7.35288L12.7097 7.44138L12.7176 7.43401C12.8362 7.51509 12.9864 7.55937 13.1366 7.55937C13.3342 7.55937 13.516 7.48561 13.6503 7.36025C13.9349 7.09474 13.9349 6.66701 13.6503 6.39413C13.6424 6.38676 13.6424 6.38676 13.6345 6.38676C12.7256 5.54599 11.5242 5.08136 10.2437 5.08136C7.5879 5.08136 5.43009 7.09474 5.43009 9.57274C5.43009 12.0507 7.5879 14.0641 10.2437 14.0641C11.4846 14.0641 12.6544 13.629 13.5476 12.8325L13.5555 12.8399L13.6503 12.7514C13.7768 12.6334 13.9349 12.5743 14.1087 12.5743C14.2827 12.5743 14.4486 12.6407 14.5672 12.7514C14.6937 12.8693 14.7569 13.0169 14.7569 13.1791C14.7569 13.334 14.7016 13.4741 14.5909 13.5847L14.5672 13.6069C13.4132 14.6836 11.8719 15.2736 10.2437 15.2736C6.86861 15.2736 4.11802 12.7071 4.11802 9.558C4.11802 6.40887 6.86861 3.84237 10.2437 3.84237C11.8719 3.84237 13.4132 4.43974 14.5672 5.51649L14.662 5.59762C15.0414 5.91474 15.5236 6.08434 16.0373 6.08434C16.5906 6.08434 17.1123 5.88524 17.5075 5.51649C18.3137 4.76424 18.3137 3.53262 17.5075 2.77299L17.4127 2.69187C15.5078 0.966124 12.9705 0 10.2753 0C4.60807 0 0 4.29961 0 9.58748C0 14.8753 4.60807 19.175 10.2753 19.175C12.9705 19.175 15.5157 18.2015 17.4522 16.4388C17.4838 16.4167 17.5075 16.3946 17.5312 16.3725C17.6656 16.2471 17.7446 16.0701 17.7446 15.8931C17.7446 15.7087 17.6656 15.5391 17.5312 15.4137C17.2862 15.1777 16.891 15.1556 16.6064 15.3326Z" fill="#FFC301"/>
<path id="Vector_3" d="M25.9411 13.3266C25.2219 12.9873 24.6607 12.5154 24.2655 11.9106C23.8624 11.3059 23.6648 10.62 23.6648 9.853C23.6648 9.086 23.8624 8.4075 24.2655 7.80271C24.6685 7.20535 25.2219 6.73335 25.9411 6.4015C26.6604 6.0696 27.4745 5.89999 28.3914 5.89999C29.3241 5.89999 30.1303 6.08434 30.81 6.46047C31.4898 6.8366 31.972 7.35288 32.2565 8.01663L30.0196 9.07863C29.6481 8.38533 29.0948 8.04612 28.3756 8.04612C27.8618 8.04612 27.4271 8.20838 27.0951 8.52549C26.7552 8.84997 26.5892 9.29249 26.5892 9.86037C26.5892 10.4356 26.7552 10.8855 27.0951 11.2174C27.435 11.5418 27.8618 11.7041 28.3756 11.7041C29.0948 11.7041 29.6402 11.3575 30.0196 10.6716L32.2565 11.7336C31.972 12.3973 31.4898 12.9136 30.81 13.2897C30.1303 13.6659 29.3241 13.8502 28.3914 13.8502C27.4745 13.8428 26.6604 13.6732 25.9411 13.3266Z" fill="black"/>
<path id="Vector_4" d="M34.2402 13.3266C33.5289 12.9873 32.9755 12.5154 32.5725 11.9106C32.1694 11.3059 31.9717 10.62 31.9717 9.853C31.9717 9.09337 32.1694 8.41487 32.5725 7.81008C32.9755 7.20535 33.521 6.73335 34.2323 6.4015C34.9358 6.0696 35.7341 5.89999 36.6273 5.89999C37.5204 5.89999 38.3187 6.0696 39.0301 6.4015C39.7414 6.74072 40.2947 7.20535 40.6899 7.80271C41.0851 8.40013 41.2827 9.086 41.2827 9.853C41.2827 10.62 41.0851 11.3059 40.6899 11.9106C40.2947 12.5154 39.7414 12.9873 39.0301 13.3266C38.3187 13.6659 37.5204 13.8355 36.6273 13.8355C35.742 13.8428 34.9516 13.6732 34.2402 13.3266ZM37.8682 11.21C38.1922 10.8855 38.3583 10.4356 38.3583 9.853C38.3583 9.28512 38.1922 8.8426 37.8682 8.51812C37.5441 8.19358 37.1252 8.03875 36.6193 8.03875C36.1134 8.03875 35.6945 8.20101 35.3705 8.51812C35.0464 8.8426 34.8805 9.28512 34.8805 9.853C34.8805 10.4282 35.0385 10.8781 35.3705 11.21C35.6945 11.5345 36.1134 11.6967 36.6193 11.6967C37.1252 11.6967 37.5441 11.5345 37.8682 11.21Z" fill="black"/>
<path id="Vector_5" d="M49.6845 6.74808C50.309 7.31596 50.6172 8.17146 50.6172 9.31459V13.7101H47.7322V9.75711C47.7322 8.70986 47.2817 8.1862 46.3806 8.1862C45.8827 8.1862 45.4875 8.33373 45.1871 8.64346C44.8868 8.94583 44.7366 9.40309 44.7366 10.0078V13.7248H41.8516V6.02536H44.6022V6.85876C44.9263 6.54896 45.3136 6.30562 45.7562 6.14335C46.1989 5.98111 46.6889 5.89261 47.2185 5.89261C48.2381 5.89998 49.068 6.1802 49.6845 6.74808Z" fill="black"/>
<path id="Vector_6" d="M53.5419 13.3266C52.8305 12.9873 52.2773 12.5154 51.8741 11.9106C51.471 11.3059 51.2734 10.62 51.2734 9.853C51.2734 9.09337 51.471 8.41487 51.8741 7.81008C52.2773 7.20535 52.8226 6.73335 53.534 6.4015C54.2375 6.0696 55.0358 5.89999 55.9289 5.89999C56.8221 5.89999 57.6204 6.0696 58.3318 6.4015C59.0431 6.74072 59.5964 7.20535 59.9916 7.80271C60.3868 8.40013 60.5845 9.086 60.5845 9.853C60.5845 10.62 60.3868 11.3059 59.9916 11.9106C59.5964 12.5154 59.0431 12.9873 58.3318 13.3266C57.6204 13.6659 56.8221 13.8355 55.9289 13.8355C55.0437 13.8428 54.2533 13.6732 53.5419 13.3266ZM57.1699 11.21C57.4939 10.8855 57.6599 10.4356 57.6599 9.853C57.6599 9.28512 57.4939 8.8426 57.1699 8.51812C56.8458 8.19358 56.4269 8.03875 55.921 8.03875C55.4152 8.03875 54.9963 8.20101 54.6722 8.51812C54.3481 8.83523 54.1821 9.28512 54.1821 9.853C54.1821 10.4282 54.3402 10.8781 54.6722 11.21C54.9963 11.5345 55.4152 11.6967 55.921 11.6967C56.4269 11.6967 56.8458 11.5345 57.1699 11.21Z" fill="black"/>
<path id="Vector_7" d="M65.0501 6.15809C65.5241 5.98111 66.0615 5.89261 66.6701 5.89261V8.31899C66.4097 8.28945 66.1885 8.27471 66.014 8.27471C65.3977 8.27471 64.9155 8.4296 64.5602 8.73934C64.2043 9.04908 64.0383 9.52845 64.0383 10.1701V13.7027H61.1533V6.02536H63.9039V6.9472C64.1966 6.60061 64.5839 6.3351 65.0501 6.15809Z" fill="black"/>
<path id="Vector_8" d="M76.8513 11.4607C76.8513 12.1761 76.5749 12.7513 76.0138 13.1865C75.4526 13.6142 74.7408 13.8281 73.8718 13.8281C73.2863 13.8281 72.67 13.7322 72.0377 13.5331C71.4054 13.334 70.8442 13.0537 70.362 12.6997L71.1841 11.4681C72.1249 12.1319 73.0413 12.4637 73.9186 12.4637C74.306 12.4637 74.6068 12.3826 74.828 12.2129C75.0493 12.0507 75.1596 11.8368 75.1596 11.5787C75.1596 11.2026 74.6222 10.8633 73.5473 10.561C73.4684 10.5315 73.405 10.5167 73.3658 10.502C71.6818 10.0742 70.8442 9.36624 70.8442 8.37795C70.8442 7.67735 71.1367 7.11684 71.7215 6.69649C72.3064 6.27608 73.0651 6.06222 73.9898 6.06222C74.9229 6.06222 75.8002 6.32036 76.6378 6.82922L75.9977 8.00925C75.3417 7.60358 74.6222 7.39709 73.8558 7.39709C73.4524 7.39709 73.1209 7.46349 72.8675 7.60358C72.6149 7.74374 72.4885 7.95023 72.4885 8.22311C72.4885 8.46646 72.6226 8.65084 72.8836 8.76145C73.0651 8.84996 73.3184 8.92372 73.6499 9.00485C73.9821 9.07862 74.2746 9.15232 74.5272 9.23346C74.7806 9.30722 75.0255 9.39572 75.2628 9.4916C75.4995 9.58747 75.7528 9.7202 76.0292 9.88984C76.5826 10.2069 76.8513 10.738 76.8513 11.4607Z" fill="black"/>
<path id="Vector_9" d="M85.5467 10.6347H79.2151C79.2548 11.1805 79.5235 11.6229 80.0212 11.9622C80.5195 12.2941 81.0883 12.4637 81.7207 12.4637C82.7326 12.4637 83.5073 12.1687 84.0287 11.5714L85.0009 12.567C84.1313 13.4077 82.9936 13.8281 81.5943 13.8281C80.456 13.8281 79.4921 13.4741 78.7014 12.7734C77.903 12.0728 77.5079 11.1215 77.5079 9.93411C77.5079 8.7467 77.9113 7.80269 78.7251 7.10209C79.5396 6.40148 80.4881 6.05483 81.5866 6.05483C82.6852 6.05483 83.6176 6.36457 84.3923 6.9841C85.1593 7.60357 85.5467 8.45908 85.5467 9.54324V10.6347ZM79.2151 9.38834H83.8549C83.8549 8.75407 83.6414 8.26733 83.2149 7.92811C82.7878 7.58883 82.2664 7.41919 81.6418 7.41919C81.0171 7.41919 80.456 7.5962 79.966 7.95022C79.4601 8.30424 79.2151 8.78361 79.2151 9.38834Z" fill="black"/>
<path id="Vector_10" d="M94.1378 6.16545V12.744C94.1378 14.0788 93.7504 15.0744 92.9757 15.7456C92.201 16.4093 91.2051 16.7486 89.9879 16.7486C88.7707 16.7486 87.6721 16.3946 86.6922 15.6866L87.4983 14.4844C88.2884 15.045 89.0869 15.3178 89.893 15.3178C90.6991 15.3178 91.3397 15.1261 91.806 14.7352C92.2799 14.3444 92.5095 13.7248 92.5095 12.8767V11.9106C92.2562 12.3531 91.8932 12.7071 91.4263 12.9726C90.9524 13.2381 90.4227 13.3708 89.8378 13.3708C88.763 13.3708 87.8857 13.0242 87.1899 12.3236C86.4947 11.6229 86.1548 10.7527 86.1548 9.71282C86.1548 8.67294 86.5024 7.80269 87.1899 7.10209C87.8774 6.40148 88.7547 6.05483 89.8301 6.05483C90.9049 6.05483 91.7662 6.46782 92.4383 7.28647V6.16545H94.1378ZM87.8299 9.64648C87.8299 10.266 88.0358 10.797 88.4468 11.2468C88.8579 11.6967 89.4107 11.9179 90.1065 11.9179C90.8023 11.9179 91.3635 11.7041 91.7899 11.269C92.2171 10.8338 92.4383 10.2954 92.4383 9.64648C92.4383 8.99747 92.2171 8.45171 91.7822 8.00181C91.3474 7.55198 90.7863 7.33069 90.0988 7.33069C89.4107 7.33069 88.8579 7.55935 88.4468 8.02398C88.0358 8.48862 87.8299 9.02695 87.8299 9.64648Z" fill="black"/>
<path id="Vector_11" d="M101.496 10.2512V6.16547H103.195V13.7101H101.496V12.331C101.219 12.7956 100.848 13.157 100.366 13.4225C99.8833 13.688 99.362 13.8207 98.8085 13.8207C97.8998 13.8207 97.1565 13.5626 96.5954 13.039C96.0342 12.5227 95.7495 11.7705 95.7495 10.7822V6.1581H97.449V10.3028C97.449 11.6894 98.0652 12.39 99.3062 12.39C99.891 12.39 100.405 12.2056 100.84 11.8443C101.274 11.4829 101.496 10.9518 101.496 10.2512Z" fill="black"/>
<path id="Vector_12" d="M109.139 7.65523C108.301 7.65523 107.661 7.91337 107.242 8.42222C106.815 8.93108 106.601 9.61694 106.601 10.4798V13.7101H104.902V6.16545H106.601V7.68471C106.878 7.2127 107.25 6.82183 107.716 6.51947C108.191 6.2171 108.688 6.06221 109.21 6.05483L109.226 7.65523C109.194 7.65523 109.17 7.65523 109.139 7.65523Z" fill="black"/>
<path id="Vector_13" d="M116.783 12.6997C115.968 13.4519 114.957 13.8281 113.74 13.8281C112.523 13.8281 111.511 13.4519 110.697 12.6997C109.882 11.9475 109.48 11.0256 109.48 9.94148C109.48 8.85732 109.882 7.93548 110.697 7.18322C111.511 6.43096 112.523 6.05483 113.74 6.05483C114.957 6.05483 115.968 6.43096 116.783 7.18322C117.597 7.93548 118 8.85732 118 9.94148C118 11.0256 117.589 11.9475 116.783 12.6997ZM111.914 11.7188C112.396 12.1761 113.005 12.4047 113.748 12.4047C114.491 12.4047 115.099 12.1761 115.582 11.7188C116.063 11.2616 116.301 10.6642 116.301 9.94148C116.301 9.21133 116.063 8.62134 115.582 8.16408C115.099 7.70682 114.491 7.47822 113.748 7.47822C113.005 7.47822 112.396 7.70682 111.914 8.16408C111.432 8.62134 111.194 9.2187 111.194 9.94148C111.187 10.6716 111.432 11.2616 111.914 11.7188Z" fill="black"/>
</g>
</svg>
